<svg width="23" height="23" viewBox="0 0 23 23" fill="none" xmlns="http://www.w3.org/2000/svg">
<g clip-path="url(#clip0)">
<path d="M14.3694 11.5C14.3694 15.47 11.1533 18.6868 7.18469 18.6868C3.21608 18.6868 0 15.4693 0 11.5C0 7.53064 3.21687 4.31314 7.18469 4.31314C11.1525 4.31314 14.3694 7.53064 14.3694 11.5Z" fill="#E2574C"/>
<path d="M15.8136 4.31314C14.2023 4.31314 12.7189 4.85001 11.5201 5.74623L11.5259 5.74694C11.7617 5.97474 12.0218 6.13507 12.2223 6.39732L10.7274 6.42104C10.4931 6.65751 10.2797 6.91479 10.0785 7.18216H12.7146C12.9151 7.42289 13.1005 7.63209 13.2687 7.89796H9.60055C9.46616 8.12938 9.34185 8.36727 9.23331 8.61446H13.6863C13.8027 8.86095 13.9069 9.04713 13.9954 9.30803H8.96957C8.8898 9.55601 8.82154 9.80967 8.76975 10.0684H14.2059C14.2591 10.3171 14.3 10.547 14.3281 10.7813H8.66192C8.63819 11.0178 8.62598 11.2578 8.62598 11.5H14.369C14.369 11.7545 14.351 11.9902 14.3252 12.2187H8.66192C8.68636 12.4624 8.7223 12.7017 8.76975 12.9375H14.1972C14.1412 13.1703 14.0765 13.4046 13.9953 13.6475H8.95302C9.02916 13.8933 9.12193 14.1319 9.22322 14.3647H13.6863C13.5627 14.6263 13.4225 14.8355 13.2681 15.0805H9.5877C9.7329 15.332 9.89314 15.5721 10.067 15.8021L12.7146 15.8416C12.489 16.1125 12.1994 16.2756 11.9355 16.5128C11.9499 16.5243 11.5137 16.5114 10.6548 16.4978C11.9614 17.846 13.7876 18.6868 15.8135 18.6868C19.7828 18.6868 23.0003 15.4693 23.0003 11.5C23.0003 7.5308 19.7835 4.31314 15.8136 4.31314Z" fill="#F4B459"/>
</g>
<defs>
<clipPath id="clip0">
<rect width="23" height="23" fill="white"/>
</clipPath>
</defs>
</svg>
