<svg width="23" height="23" viewBox="0 0 23 23" fill="none" xmlns="http://www.w3.org/2000/svg">
<g clip-path="url(#clip0)">
<path d="M9.40161 7.90121L8.24729 15.0844H10.0923L11.2459 7.90121H9.40161ZM14.9669 10.8273C14.3222 10.5089 13.9269 10.294 13.9269 9.96832C13.9348 9.67223 14.2611 9.36889 14.9899 9.36889C15.5894 9.35383 16.0299 9.4947 16.3642 9.63486L16.5316 9.70959L16.7825 8.20668C16.418 8.06581 15.8402 7.9106 15.1265 7.9106C13.3045 7.9106 12.0215 8.8579 12.0135 10.2128C11.9985 11.2126 12.9321 11.7674 13.6307 12.1002C14.3445 12.4416 14.5874 12.663 14.5874 12.9663C14.5795 13.4321 14.0103 13.647 13.4791 13.647C12.7432 13.647 12.3478 13.5363 11.7477 13.2768L11.5047 13.1661L11.2467 14.728C11.6801 14.9206 12.4772 15.0902 13.3045 15.0989C15.2409 15.0989 16.5008 14.1659 16.5166 12.722C16.523 11.9299 16.0307 11.3232 14.9669 10.8273ZM21.5126 7.92344H20.0851C19.6452 7.92344 19.311 8.04997 19.1205 8.50135L16.3799 15.0844H18.3162L18.8495 13.6592H21.0158L21.2925 15.0902H23.0003L21.5126 7.92344ZM19.3865 12.2208C19.4239 12.2245 20.1297 9.89422 20.1297 9.89422L20.6918 12.2208C20.6918 12.2208 19.7509 12.2208 19.3865 12.2208ZM6.7056 7.90121L4.89793 12.7816L4.70101 11.8191C4.36677 10.7086 3.31887 9.50187 2.14941 8.90244L3.8047 15.0773H5.75687L8.65777 7.902H6.7056V7.90121Z" fill="#2394BC"/>
<path d="M4.09258 8.82763C3.95171 8.27992 3.50245 7.91052 2.8923 7.90263H0.0294827L0 8.03554C2.2332 8.5861 4.10764 10.2802 4.71574 11.8737L4.09258 8.82763Z" fill="#EFC75E"/>
</g>
<defs>
<clipPath id="clip0">
<rect width="23" height="23" fill="white"/>
</clipPath>
</defs>
</svg>
